DataType=double
version=3
OpenSimVersion=4.5-2023-11-26-efcdfd3eb
endheader
time	EMG01_right_gast_med	EMG02_right_glut_max	EMG03_left_gast_med	EMG04_left_glut_max	EMG05_right_glut_med	EMG06_right_bic_fem	EMG07_right_rect_fem	EMG08_right_vast_lat	EMG09_right_vast_med	EMG10_right_tens_fasc_lat	EMG11_left_glut_med	EMG12_left_bic_fem	EMG13_left_rect_fem	EMG14_left_vast_lat	EMG15_left_vast_med	EMG16_left_tens_fasc_lat
0	-0.01778201356365848	0.003700548509441809	0.00213945119998894	0.0105011052684762	0.003073556819241055	-0.002874914046005848	0.0008049192479448462	0.0001336476059114675	0.003779636834872323	0.0122783022550311	0.002395655441725693	0.001147468734774554	0.01058050248405805	0.008172406462327506	0.004269217855648942	0.007991714756023503
0.01	-0.009154603720158938	0.009144528273355148	0.006348614196569955	0.01532512681385434	0.008774203063390785	0.01150452314231837	0.004417490780111131	0.001213256083543589	0.008791849571503443	0.02671829745702323	0.004379545019296396	0.002659700594625215	0.01207456691476302	0.01168800554029907	0.007273144974327484	0.01645082123508189
0.02	0.0004716974549337489	0.01456158044324073	0.01056509453919297	0.02014015324502762	0.01437871277404324	0.0258836606759937	0.008039697715308193	0.002296520860300085	0.01363020421449357	0.04065787010174086	0.006308958987020804	0.004099303148984323	0.01345490007331326	0.01491660159871895	0.01010614069508384	0.02490485539938975
0.03	0.011103557393171	0.01989699171462469	0.01473789304605224	0.02491452657288292	0.01984048669095593	0.04010051014530221	0.01163754366861131	0.003372375870394686	0.01826648288974067	0.05398968915729867	0.00817346113586081	0.005457195401074058	0.01470460261745499	0.01784185586912743	0.01275095680179386	0.0333322554718918
0.04	0.02274041072201969	0.02509697816590175	0.01881709501487002	0.02961599787901638	0.02511427034330944	0.05399846541530493	0.01517837853710373	0.004430250480262046	0.02267421563964189	0.06661249208614312	0.009964014180602852	0.006725664228840962	0.01580822915549488	0.0204502693461965	0.01519183754917084	0.04171007983364406
0.05	0.03537421520082603	0.03010959969440164	0.02275485085695792	0.0342120592804647	0.03015685685772683	0.06742939544643488	0.01863156017422477	0.005460291410101578	0.02682899973423071	0.07843269283322858	0.01167320667143166	0.007898559617479749	0.01675214578088971	0.0227313735979082	0.01741472732821915	0.05001391285345014
0.06	0.04898922293238659	0.03488560736438824	0.02650623360679568	0.0386702993645991	0.03492773343898598	0.08025637919488642	0.02196904233480043	0.006453554458906926	0.03070878862289826	0.08936582789716895	0.01329544960699967	0.008971465698691788	0.0175248699342935	0.02467790576029517	0.01940746525955032	0.05821782595158979
0.07000000000000001	0.06356177441235282	0.03937920127528051	0.03002995638888487	0.04295878027872072	0.03938966188555987	0.09235600922397041	0.0251658736444412	0.007402163297663389	0.03429414598632285	0.09933780672626941	0.01482713793674131	0.009941843664444274	0.01811738620403259	0.02628596670285841	0.02115996419260995	0.06629440310604993
0.08	0.07906013037229492	0.04354868319266741	0.03328894476636328	0.04704643369130362	0.04350918713120763	0.1036202178850578	0.02820059800445422	0.008299435108221547	0.03756846130762712	0.108285944213401	0.01626677358997524	0.010809143674835	0.01852343251520074	0.02755516063924977	0.02266437218897983	0.07421483818609369
0.09	0.09544436139017237	0.04735699566867965	0.03625076752464935	0.05090347141015055	0.04725706987185234	0.1139576066238221	0.03105555227917712	0.009139974044371333	0.04051812375883236	0.1161597635948234	0.01761504803631944	0.011574883873258	0.01873975214313093	0.02848871356335594	0.02391521496070973	0.08194910920328584
0.1	0.1126663173284458	0.05077214606988473	0.03888793510486925	0.05450180469637541	0.05060864064004068	0.1232942832570046	0.03371706176005008	0.009919733814228233	0.04313265152815317	0.1229215664144907	0.01887488349400671	0.012242695372803	0.01876630818691222	0.02909356701253423	0.02490951798345337	0.08946623176410114
0.11	0.1306696984689002	0.05376751864321196	0.04117807798857285	0.05781546446826578	0.05354407394320528	0.1315742309356051	0.03617553717770872	0.010636050566051	0.04540477462435009	0.1285467724596281	0.02005143261953513	0.01281833248832956	0.01860645824568831	0.0293804428645247	0.02564690708226999	0.09673459068842433
0.12	0.1493902487164916	0.05632208033597002	0.04310401889007477	0.06082101294179239	0.05604858279237869	0.1387592449559814	0.03842547889318189	0.01128764703076424	0.0473304708177941	0.1330240373286949	0.02115203704093382	0.0133096476676093	0.01826708766803161	0.0293638741293051	0.02612968607273848	0.1037223450011066
0.13	0.1687560886908186	0.05842048733187814	0.04465375352622155	0.06349793608326953	0.05811253616893634	0.144828481340424	0.04046539480340937	0.01187460879471777	0.04890895609075593	0.1363551590520687	0.0221861457975225	0.01372653071581858	0.01775869985502188	0.0290621960348312	0.02636288951119247	0.1103978973977773
0.14	0.1886882025057833	0.06005309999758343	0.04582035510575189	0.06582900566317529	0.05973150418793735	0.1497776666500677	0.0422976389818086	0.01239833380372274	0.05014263186799429	0.1385547880903457	0.02316519563113644	0.01408081214731991	0.01709546203713235	0.02849749140427382	0.02635430795564603	0.1167304149191788
0.15	0.2091010862042172	0.06121591443335671	0.04660181732143254	0.06780059965686938	0.06090623708047899	0.1536180230756712	0.04392817852154975	0.0128614567567286	0.05103699108890171	0.1396499568590306	0.02410245579637231	0.01438613091386412	0.01629520505948001	0.02769548475615491	0.02611448264058128	0.1226903831769817
0.16	0.2299035581455231	0.0619104190651204	0.04700084960663189	0.06940297013087637	0.06164258432761369	0.1563749662487023	0.04536629666794299	0.01326775084585284	0.05160048456541477	0.1396794455966893	0.02501284041997717	0.01465776739308761	0.01537937601368697	0.02668538082194819	0.02565666633104505	0.1282501726505306
0.17	0.2509997223099005	0.06214338463662338	0.04702463694728009	0.07063044842668635	0.06195135992827101	0.1580866345236359	0.04662424114069251	0.01362201013178771	0.05184434908889585	0.1386930016476381	0.02591269160431649	0.0149124433208612	0.01437294284416184	0.0254996450378759	0.02499674746825371	0.1333845932247925
0.18	0.2722900647216228	0.06192659553188192	0.04668457479976443	0.07148157844129477	0.0618481594673877	0.1588023068402503	0.04771682738522981	0.01392991642233871	0.05178239971116675	0.1367504299983677	0.02681953672110027	0.01516809112584108	0.01330425024162812	0.02417372570654304	0.02415313558122966	0.1380714132154431
0.19	0.2936726512923112	0.06127652988087205	0.04599598789325227	0.0719591707004506	0.06135313432046548	0.1585807613742307	0.04866100706637395	0.01419789468062383	0.05143078993930903	0.133920574241309	0.02775182378174698	0.01544359567290542	0.01220482627245308	0.02274571959887429	0.02314660720182196	0.1422918223160389
0.2	0.3150443831139978	0.06021399596155671	0.04497784013736062	0.07207027347243386	0.06049072791325734	0.1574886196728229	0.04947541214199134	0.01443296082098878	0.05080774470054798	0.1302802086182853	0.02872863922793048	0.01575851169753689	0.01110913929065575	0.02125598450622783	0.02200011299733884	0.1460308240261484
0.21	0.3363022548368282	0.05876373313007973	0.04365244154366685	0.07182606203479429	0.05928937870304932	0.1555987122124303	0.05017988419981877	0.01464256545991941	0.04993327187301639	0.125912863163892	0.02976941269900554	0.01613276037493954	0.01005430469287788	0.01974670363312774	0.02073854833662742	0.1492775506390315
0.22	0.3573445565289278	0.0569539862055556	0.04204515686108232	0.07124165161823086	0.05778119439122582	0.1529884926964278	0.05079499760859063	0.01483443688650668	0.04882885900047913	0.1209076046886033	0.03089361323574229	0.01658630875775392	0.009079741008360041	0.0182614078334743	0.01938849077345618	0.1520255006560887
0.23	0.3780719607832053	0.05481606220101189	0.04018411943488916	0.07033584180378138	0.05600160126111824	0.14973852097495	0.0513415838840743	0.01501642621150654	0.04751716222895657	0.115357795752892	0.03212044112298817	0.01713883629722092	0.008226774769367659	0.01684446250874818	0.01797790873800671	0.1542727032532274
